<svg width="18" height="18" viewBox="0 0 18 18" fill="none" xmlns="http://www.w3.org/2000/svg">
<path d="M6.10223 12.0273C6.14294 12.4353 6.19059 12.8369 6.24519 13.232C6.42685 14.5156 6.68446 15.6636 7.01206 16.6464C7.16544 17.1021 7.33073 17.516 7.50644 17.8764C8.49532 18.0412 9.50465 18.0412 10.4935 17.8764C10.6692 17.516 10.8345 17.1021 10.9879 16.6464C11.3155 15.6636 11.5731 14.5156 11.7548 13.232C11.8104 12.8379 11.858 12.4363 11.8977 12.0273H6.10223Z" fill="#F3F3F3"/>
<path d="M11.9961 7.31287H6.00406C5.97428 7.8668 5.96088 8.42968 5.96088 8.99999C5.96088 9.57031 5.97428 10.1332 6.00406 10.6871H11.9961C12.0259 10.1332 12.0393 9.57031 12.0393 8.99999C12.0393 8.42968 12.0259 7.8668 11.9961 7.31287Z" fill="#F3F3F3"/>
<path d="M12.2596 0.929206C12.7346 2.35723 13.0712 4.08755 13.2439 5.97272H17.4774C17.4208 5.8119 17.3597 5.65406 17.2927 5.49622C16.3783 3.33899 14.6611 1.62175 12.5038 0.707333C12.3802 0.655215 12.2551 0.606075 12.1301 0.559914C12.1732 0.67904 12.2164 0.802634 12.2596 0.929206Z" fill="#F3F3F3"/>
<path d="M13.3794 8.99999C13.3794 9.56982 13.366 10.1322 13.3392 10.6871H17.8422C18.0527 9.57222 18.0527 8.42777 17.8422 7.31287H13.3392C13.366 7.8668 13.3794 8.42918 13.3794 8.99999Z" fill="#F3F3F3"/>
<path d="M4.62062 8.99999C4.62062 8.43017 4.63402 7.8678 4.66083 7.31287H0.157846C-0.0526154 8.42777 -0.0526154 9.57222 0.157846 10.6871H4.66083C4.63402 10.1332 4.62062 9.57081 4.62062 8.99999Z" fill="#F3F3F3"/>
<path d="M5.74044 17.0708C5.26543 15.6428 4.92889 13.9125 4.75616 12.0273H0.522705C0.57929 12.1881 0.640342 12.346 0.707351 12.5038C1.62176 14.661 3.33901 16.3783 5.49624 17.2927C5.61983 17.3448 5.74491 17.3939 5.86999 17.4401C5.82681 17.321 5.78363 17.1974 5.74044 17.0708Z" fill="#F3F3F3"/>
<path d="M13.2439 12.0273C13.0712 13.9125 12.7346 15.6428 12.2596 17.0708C12.2164 17.1974 12.1732 17.321 12.1301 17.4401C12.2551 17.3939 12.3802 17.3448 12.5038 17.2927C14.6611 16.3783 16.3783 14.661 17.2927 12.5038C17.3597 12.346 17.4208 12.1881 17.4774 12.0273H13.2439Z" fill="#F3F3F3"/>
<path d="M11.8977 5.9727C11.858 5.56469 11.8104 5.16314 11.7548 4.76803C11.5731 3.48445 11.3155 2.33636 10.9879 1.35357C10.8345 0.897912 10.6692 0.483947 10.4935 0.12359C9.50465 -0.0411965 8.49532 -0.0411965 7.50644 0.12359C7.33073 0.483947 7.16544 0.897912 7.01206 1.35357C6.68446 2.33636 6.42685 3.48445 6.24519 4.76803C6.18959 5.16314 6.14194 5.56469 6.10223 5.9727H11.8977Z" fill="#F3F3F3"/>
<path d="M4.75616 5.97272C4.92889 4.08755 5.26543 2.35723 5.74044 0.929206C5.78363 0.802634 5.82681 0.67904 5.86999 0.559914C5.74491 0.606075 5.61983 0.655215 5.49624 0.707333C3.33901 1.62175 1.62176 3.33899 0.707351 5.49622C0.640342 5.65406 0.57929 5.8119 0.522705 5.97272H4.75616Z" fill="#F3F3F3"/>
</svg>
