<svg width="23" height="15" viewBox="0 0 23 15" fill="none" xmlns="http://www.w3.org/2000/svg">
<g clip-path="url(#clip0_3_302)">
<path d="M11.5226 0C7.72659 0 4.76601 0.837232 2.72653 2.48872C0.965748 3.90853 0 5.89727 0 8.08538C0 11.8964 2.78505 15 6.20829 15C7.79415 15 9.30339 14.1398 10.2559 12.6827L11.1094 11.3138C11.2174 11.1474 11.3652 11.0592 11.5226 11.0592C11.6801 11.0592 11.8327 11.1467 11.9268 11.2995L12.7984 12.6964C13.7418 14.1348 15.2511 14.995 16.8369 14.995C20.1794 14.995 23 11.7709 23 7.95992C23 5.79044 22.0433 3.82966 20.3 2.43717C18.2786 0.8186 15.3277 0 11.5226 0ZM11.5226 1.57695C14.9278 1.57695 17.641 2.30798 19.3614 3.68121C21.0999 5.0737 21.4684 6.7755 21.4684 7.95992C21.4684 10.8691 19.3077 13.4181 16.8412 13.4181C15.7674 13.4181 14.7299 12.8169 14.0827 11.8268L13.2068 10.43C12.8159 9.83313 12.1868 9.47725 11.522 9.47725C10.8573 9.47725 10.2239 9.83313 9.82397 10.4437L8.97042 11.8126C8.31472 12.8162 7.28141 13.4175 6.20769 13.4175C3.4136 13.4175 1.53156 10.6604 1.53156 8.08414C1.53156 6.39104 2.29101 4.84638 3.66996 3.73152C5.41265 2.32102 8.12652 1.57633 11.5226 1.57633V1.57695ZM6.90018 3.94518C5.07606 3.94518 3.91306 5.10165 3.37801 5.79044C2.9648 6.3221 2.9648 7.09474 3.37801 7.62701C3.91246 8.31643 5.08028 9.47228 6.90018 9.47228C8.72008 9.47228 9.8873 8.31581 10.4224 7.62701C10.8356 7.09536 10.8356 6.32272 10.4224 5.79044C9.88791 5.10103 8.72008 3.94518 6.90018 3.94518ZM16.1004 3.94518C14.2811 3.94518 13.1133 5.10165 12.5782 5.79044C12.165 6.3221 12.165 7.09474 12.5782 7.62701C13.1127 8.31643 14.2805 9.47228 16.1004 9.47228C17.9203 9.47228 19.0875 8.31581 19.6226 7.62701C20.0358 7.09536 20.0358 6.32272 19.6226 5.79044C19.0881 5.10103 17.9203 3.94518 16.1004 3.94518ZM6.90018 5.52213C8.02337 5.52213 8.79126 6.23452 9.1731 6.70593C8.79126 7.17796 8.02337 7.88974 6.90018 7.88974C5.77699 7.88974 5.0091 7.17734 4.62727 6.70593C5.0091 6.2339 5.77699 5.52213 6.90018 5.52213ZM16.1004 5.52213C17.2236 5.52213 17.9915 6.23452 18.3733 6.70593C17.9915 7.17796 17.2278 7.88974 16.1004 7.88974C14.973 7.88974 14.2093 7.17734 13.8275 6.70593C14.2093 6.2339 14.9772 5.52213 16.1004 5.52213Z" fill="#202833"/>
</g>
<defs>
<clipPath id="clip0_3_302">
<rect width="23" height="15" fill="white"/>
</clipPath>
</defs>
</svg>
