<svg width="77" height="31" viewBox="0 0 77 31" fill="none" xmlns="http://www.w3.org/2000/svg">
<rect width="77" height="31" rx="15.5" fill="#202833" class="ru-elem-1"></rect>
<rect x="3" y="3" width="37" height="25" rx="12.5" fill="#F3F3F3" class="ru-elem-2"></rect>
<path d="M15.7985 10.8C16.3745 10.8 16.8972 10.88 17.3665 11.04C17.8358 11.2 18.2358 11.4293 18.5665 11.728C18.8972 12.016 19.1532 12.368 19.3345 12.784C19.5158 13.1893 19.6065 13.6427 19.6065 14.144C19.6065 14.912 19.4038 15.5733 18.9985 16.128C18.6038 16.6827 18.0652 17.0827 17.3825 17.328L20.6945 21.664V22H18.7425L15.3505 17.568H14.3105V22H12.4865V10.8H15.7985ZM15.7025 15.968C16.3532 15.968 16.8492 15.7973 17.1905 15.456C17.5425 15.1147 17.7185 14.688 17.7185 14.176C17.7185 13.664 17.5478 13.2427 17.2065 12.912C16.8652 12.5707 16.3692 12.4 15.7185 12.4H14.3105V15.968H15.7025ZM26.4278 22.16C25.7238 22.16 25.1051 22.0533 24.5718 21.84C24.0384 21.6267 23.5851 21.3227 23.2118 20.928C22.8491 20.5227 22.5718 20.0373 22.3798 19.472C22.1984 18.9067 22.1078 18.272 22.1078 17.568V10.8H23.9318V17.424C23.9318 18.4587 24.1451 19.2213 24.5718 19.712C25.0091 20.2027 25.6224 20.448 26.4118 20.448C27.1904 20.448 27.7984 20.2027 28.2358 19.712C28.6838 19.2213 28.9078 18.4853 28.9078 17.504V10.8H30.6678V17.52C30.6678 18.2453 30.5718 18.896 30.3798 19.472C30.1878 20.0373 29.9104 20.5227 29.5478 20.928C29.1851 21.3227 28.7371 21.6267 28.2038 21.84C27.6811 22.0533 27.0891 22.16 26.4278 22.16Z" fill="#202833" class="ru-elem-3"></path>
<path d="M57.1022 19.0273C57.1429 19.4353 57.1906 19.8369 57.2452 20.232C57.4269 21.5156 57.6845 22.6636 58.0121 23.6464C58.1654 24.1021 58.3307 24.516 58.5064 24.8764C59.4953 25.0412 60.5047 25.0412 61.4935 24.8764C61.6692 24.516 61.8345 24.1021 61.9879 23.6464C62.3155 22.6636 62.5731 21.5156 62.7548 20.232C62.8104 19.8379 62.858 19.4363 62.8977 19.0273H57.1022Z" fill="#F3F3F3" class="ru-elem-4"></path>
<path d="M62.9961 14.3129H57.0041C56.9743 14.8668 56.9609 15.4297 56.9609 16C56.9609 16.5703 56.9743 17.1332 57.0041 17.6871H62.9961C63.0259 17.1332 63.0393 16.5703 63.0393 16C63.0393 15.4297 63.0259 14.8668 62.9961 14.3129Z" fill="#F3F3F3" class="ru-elem-5"></path>
<path d="M63.2596 7.92921C63.7346 9.35723 64.0712 11.0875 64.2439 12.9727H68.4774C68.4208 12.8119 68.3597 12.6541 68.2927 12.4962C67.3783 10.339 65.6611 8.62175 63.5038 7.70733C63.3802 7.65521 63.2551 7.60608 63.1301 7.55991C63.1732 7.67904 63.2164 7.80263 63.2596 7.92921Z" fill="#F3F3F3" class="ru-elem-6"></path>
<path d="M64.3794 16C64.3794 16.5698 64.366 17.1322 64.3392 17.6871H68.8422C69.0527 16.5722 69.0527 15.4278 68.8422 14.3129H64.3392C64.366 14.8668 64.3794 15.4292 64.3794 16Z" fill="#F3F3F3" class="ru-elem-7"></path>
<path d="M55.6206 16C55.6206 15.4302 55.634 14.8678 55.6608 14.3129H51.1578C50.9474 15.4278 50.9474 16.5722 51.1578 17.6871H55.6608C55.634 17.1332 55.6206 16.5708 55.6206 16Z" fill="#F3F3F3" class="ru-elem-8"></path>
<path d="M56.7404 24.0708C56.2654 22.6428 55.9289 20.9125 55.7562 19.0273H51.5227C51.5793 19.1881 51.6403 19.346 51.7074 19.5038C52.6218 21.661 54.339 23.3783 56.4962 24.2927C56.6198 24.3448 56.7449 24.3939 56.87 24.4401C56.8268 24.321 56.7836 24.1974 56.7404 24.0708Z" fill="#F3F3F3" class="ru-elem-9"></path>
<path d="M64.2439 19.0273C64.0712 20.9125 63.7346 22.6428 63.2596 24.0708C63.2164 24.1974 63.1732 24.321 63.1301 24.4401C63.2551 24.3939 63.3802 24.3448 63.5038 24.2927C65.6611 23.3783 67.3783 21.661 68.2927 19.5038C68.3597 19.346 68.4208 19.1881 68.4774 19.0273H64.2439Z" fill="#F3F3F3" class="ru-elem-10"></path>
<path d="M62.8977 12.9727C62.858 12.5647 62.8104 12.1631 62.7548 11.768C62.5731 10.4844 62.3155 9.33636 61.9879 8.35357C61.8345 7.89791 61.6692 7.48395 61.4935 7.12359C60.5047 6.9588 59.4953 6.9588 58.5064 7.12359C58.3307 7.48395 58.1654 7.89791 58.0121 8.35357C57.6845 9.33636 57.4269 10.4844 57.2452 11.768C57.1896 12.1631 57.1419 12.5647 57.1022 12.9727H62.8977Z" fill="#F3F3F3" class="ru-elem-11"></path>
<path d="M55.7562 12.9727C55.9289 11.0875 56.2654 9.35723 56.7404 7.92921C56.7836 7.80263 56.8268 7.67904 56.87 7.55991C56.7449 7.60608 56.6198 7.65521 56.4962 7.70733C54.339 8.62175 52.6218 10.339 51.7074 12.4962C51.6403 12.6541 51.5793 12.8119 51.5227 12.9727H55.7562Z" fill="#F3F3F3" class="ru-elem-12"></path>
</svg>
