<svg width="18" height="18" viewBox="0 0 18 18" fill="none" xmlns="http://www.w3.org/2000/svg">
<g clip-path="url(#clip0_3_311)">
<path d="M9 0C4.0374 0 0 4.0374 0 9C0 13.9626 4.0374 18 9 18C13.9626 18 18 13.9626 18 9C18 4.0374 13.9626 0 9 0ZM9 16.3636C4.93969 16.3636 1.63636 13.0603 1.63636 9C1.63636 4.93969 4.93969 1.63636 9 1.63636C13.0603 1.63636 16.3636 4.93969 16.3636 9C16.3636 13.0603 13.0603 16.3636 9 16.3636Z" fill="#F3F3F3"/>
<path d="M11.1985 11.1984C9.98614 12.4107 8.01378 12.4107 6.8015 11.1985C6.48203 10.879 5.96396 10.879 5.64443 11.1985C5.3249 11.518 5.3249 12.0361 5.64443 12.3556C6.56969 13.2808 7.78458 13.7433 9.00001 13.7433C10.2151 13.7433 11.4306 13.2806 12.3556 12.3556C12.6751 12.0361 12.6751 11.518 12.3556 11.1985C12.036 10.8789 11.5179 10.879 11.1985 11.1984Z" fill="#F3F3F3"/>
<path d="M6.28039 8.02582C6.48385 7.82291 6.60003 7.54145 6.60003 7.25454C6.60003 6.96764 6.48385 6.68618 6.28039 6.48327C6.07749 6.28036 5.79603 6.16364 5.50912 6.16364C5.22161 6.16364 4.94076 6.28036 4.73779 6.48327C4.53439 6.68618 4.41821 6.96764 4.41821 7.25454C4.41821 7.54145 4.53439 7.82291 4.73779 8.02582C4.94076 8.22927 5.22221 8.34545 5.50912 8.34545C5.79603 8.34545 6.07749 8.22927 6.28039 8.02582Z" fill="#F3F3F3"/>
<path d="M12.4909 6.16364C12.204 6.16364 11.9226 6.28036 11.7196 6.48327C11.5168 6.68618 11.4 6.96709 11.4 7.25454C11.4 7.542 11.5168 7.82291 11.7196 8.02582C11.9226 8.22927 12.204 8.34545 12.4909 8.34545C12.7778 8.34545 13.0593 8.22927 13.2622 8.02582C13.4651 7.82291 13.5818 7.542 13.5818 7.25454C13.5818 6.96764 13.4651 6.68618 13.2622 6.48327C13.0593 6.28036 12.7778 6.16364 12.4909 6.16364Z" fill="#F3F3F3"/>
</g>
<defs>
<clipPath id="clip0_3_311">
<rect width="18" height="18" fill="white"/>
</clipPath>
</defs>
</svg>
