<svg width="38" height="38" viewBox="0 0 38 38" fill="none" xmlns="http://www.w3.org/2000/svg">
<path d="M12.8825 25.3909C12.9685 26.2523 13.0691 27.1 13.1843 27.9341C13.5679 30.6439 14.1117 33.0676 14.8033 35.1424C15.1271 36.1044 15.476 36.9783 15.847 37.739C17.9346 38.0869 20.0654 38.0869 22.1531 37.739C22.524 36.9783 22.873 36.1044 23.1967 35.1424C23.8883 33.0676 24.4322 30.6439 24.8157 27.9341C24.9331 27.1021 25.0337 26.2544 25.1175 25.3909H12.8825Z" fill="#D8D8D8"/>
<path d="M25.325 15.4383H12.6751C12.6122 16.6077 12.5839 17.796 12.5839 19C12.5839 20.204 12.6122 21.3923 12.6751 22.5617H25.325C25.3879 21.3923 25.4161 20.204 25.4161 19C25.4161 17.796 25.3879 16.6077 25.325 15.4383Z" fill="#D8D8D8"/>
<path d="M25.8814 1.96162C26.8842 4.97635 27.5947 8.62923 27.9593 12.609H36.8966C36.7772 12.2695 36.6483 11.9363 36.5068 11.6031C34.5764 7.04895 30.9511 3.42365 26.3969 1.49322C26.136 1.3832 25.872 1.27946 25.6079 1.18201C25.6991 1.4335 25.7902 1.69442 25.8814 1.96162Z" fill="#D8D8D8"/>
<path d="M28.2454 19C28.2454 20.203 28.2171 21.3902 28.1605 22.5617H37.6668C38.1111 20.208 38.1111 17.792 37.6668 15.4383H28.1605C28.2171 16.6077 28.2454 17.795 28.2454 19Z" fill="#D8D8D8"/>
<path d="M9.75465 19C9.75465 17.7971 9.78294 16.6098 9.83952 15.4383H0.333231C-0.111077 17.792 -0.111077 20.208 0.333231 22.5617H9.83952C9.78294 21.3923 9.75465 20.2051 9.75465 19Z" fill="#D8D8D8"/>
<path d="M12.1186 36.0384C11.1158 33.0236 10.4054 29.3707 10.0407 25.3909H1.10342C1.22288 25.7304 1.35177 26.0637 1.49323 26.3969C3.42366 30.951 7.04895 34.5763 11.6031 36.5068C11.864 36.6168 12.1281 36.7205 12.3921 36.818C12.301 36.5665 12.2098 36.3056 12.1186 36.0384Z" fill="#D8D8D8"/>
<path d="M27.9593 25.3909C27.5947 29.3707 26.8842 33.0236 25.8814 36.0384C25.7902 36.3056 25.6991 36.5665 25.6079 36.818C25.872 36.7205 26.136 36.6168 26.3969 36.5068C30.9511 34.5763 34.5764 30.951 36.5068 26.3969C36.6483 26.0637 36.7772 25.7304 36.8966 25.3909H27.9593Z" fill="#D8D8D8"/>
<path d="M25.1175 12.609C25.0337 11.7477 24.9331 10.9 24.8157 10.0658C24.4322 7.35605 23.8883 4.93232 23.1967 2.85754C22.873 1.89559 22.524 1.02167 22.1531 0.260911C20.0654 -0.0869704 17.9346 -0.0869704 15.847 0.260911C15.476 1.02167 15.1271 1.89559 14.8033 2.85754C14.1117 4.93232 13.5679 7.35605 13.1843 10.0658C13.067 10.9 12.9664 11.7477 12.8825 12.609H25.1175Z" fill="#D8D8D8"/>
<path d="M10.0407 12.609C10.4054 8.62923 11.1158 4.97635 12.1186 1.96162C12.2098 1.69442 12.301 1.4335 12.3921 1.18201C12.1281 1.27946 11.864 1.3832 11.6031 1.49322C7.04895 3.42365 3.42366 7.04895 1.49323 11.6031C1.35177 11.9363 1.22288 12.2695 1.10342 12.609H10.0407Z" fill="#D8D8D8"/>
</svg>
