<svg width="39" height="44" viewBox="0 0 39 44" fill="none" xmlns="http://www.w3.org/2000/svg">
<circle cx="19.5" cy="19.5" r="19.5" fill="#D8D8D8"/>
<path d="M19.5005 22.8753C20.7861 22.8753 22.0428 22.4941 23.1117 21.7798C24.1806 21.0656 25.0138 20.0504 25.5058 18.8627C25.9977 17.675 26.1265 16.368 25.8757 15.1071C25.6248 13.8462 25.0058 12.688 24.0967 11.779C23.1877 10.8699 22.0295 10.2508 20.7686 10C19.5077 9.74921 18.2007 9.87794 17.013 10.3699C15.8252 10.8619 14.8101 11.695 14.0958 12.764C13.3816 13.8329 13.0004 15.0896 13.0004 16.3752C13.0004 18.0991 13.6852 19.7525 14.9042 20.9715C16.1232 22.1905 17.7765 22.8753 19.5005 22.8753Z" fill="white"/>
<path d="M29.2514 39.1252C29.6824 39.1252 30.0957 38.954 30.4005 38.6493C30.7052 38.3445 30.8764 37.9312 30.8764 37.5002C30.8764 34.4833 29.678 31.59 27.5447 29.4568C25.4115 27.3235 22.5181 26.1251 19.5013 26.1251C16.4844 26.1251 13.5911 27.3235 11.4578 29.4568C9.32455 31.59 8.1261 34.4833 8.1261 37.5002C8.1261 37.9312 8.29731 38.3445 8.60206 38.6493C8.90681 38.954 9.32014 39.1252 9.75112 39.1252H29.2514Z" fill="white"/>
</svg>
