<svg width="39" height="44" viewBox="0 0 39 44" fill="none" xmlns="http://www.w3.org/2000/svg">
<circle cx="19.5005" cy="19.5" r="19.5" fill="#3390EC"/>
<path d="M19.501 22.8753C20.7866 22.8753 22.0433 22.4941 23.1123 21.7798C24.1812 21.0656 25.0143 20.0504 25.5063 18.8627C25.9983 17.675 26.127 16.368 25.8762 15.1071C25.6254 13.8462 25.0063 12.688 24.0973 11.779C23.1882 10.8699 22.03 10.2508 20.7691 10C19.5082 9.74921 18.2013 9.87794 17.0135 10.3699C15.8258 10.8619 14.8106 11.695 14.0964 12.764C13.3821 13.8329 13.0009 15.0896 13.0009 16.3752C13.0009 18.0991 13.6857 19.7525 14.9047 20.9715C16.1238 22.1905 17.7771 22.8753 19.501 22.8753Z" fill="white"/>
<path d="M29.2519 39.1252C29.6829 39.1252 30.0963 38.954 30.401 38.6493C30.7058 38.3445 30.877 37.9312 30.877 37.5002C30.877 34.4833 29.6785 31.59 27.5453 29.4568C25.412 27.3235 22.5187 26.1251 19.5018 26.1251C16.4849 26.1251 13.5916 27.3235 11.4584 29.4568C9.3251 31.59 8.12665 34.4833 8.12665 37.5002C8.12665 37.9312 8.29786 38.3445 8.60261 38.6493C8.90736 38.954 9.32069 39.1252 9.75167 39.1252H29.2519Z" fill="white"/>
</svg>
