<svg width="21" height="20" viewBox="0 0 21 20" fill="none" xmlns="http://www.w3.org/2000/svg">
<path d="M9.33008 1.26855C9.77434 0.209963 11.3403 0.244989 11.71 1.37402L13.4307 6.62598L13.4639 6.69141C13.5074 6.75049 13.5786 6.78894 13.6582 6.78906H19.2266C20.4126 6.7892 20.9452 8.25965 20.0625 9.01074L19.9727 9.08105L15.4678 12.3271C15.3848 12.3872 15.3512 12.4922 15.3818 12.5859L17.1025 17.8379L17.1338 17.9482C17.3957 19.0393 16.1838 19.8886 15.2393 19.3174L15.1465 19.2559L10.6426 16.0098C10.5788 15.9641 10.4981 15.9527 10.4258 15.9756L10.3574 16.0098L5.85352 19.2559C4.86711 19.9667 3.51097 19.0173 3.89746 17.8379L4.93945 14.6543L5.00977 14.4678C5.19288 14.0413 5.50595 13.6809 5.90527 13.4375L5.90625 13.4365L9.73145 11.1113L5.28809 11.4844C4.81957 11.5238 4.35242 11.4148 3.95117 11.1768L3.78418 11.0674L1.02734 9.08105C0.0213068 8.35593 0.54922 6.78921 1.77344 6.78906H7.3418C7.4479 6.7889 7.53837 6.72054 7.56934 6.62598L9.29004 1.37402L9.33008 1.26855Z" fill="#FFC812" stroke="#E28433"/>
</svg>
